<svg version="1.1" xmlns="http://www.w3.org/2000/svg" x="0px" y="0px" viewBox="0 0 100 100">
<path d="M35.3,33.2l3,2.2v4.9c0,0.3,0.1,0.6,0.4,0.8l10.8,8.1c0.2,0.1,0.4,0.2,0.6,0.2s0.4-0.1,0.6-0.2l5.9-4.4v3.6c0,0.6,0.4,1,1,1
	s1-0.4,1-1v-5.1l2.9-2.2c0.3-0.2,0.4-0.5,0.4-0.8v-4.9l3-2.2c0.3-0.2,0.4-0.5,0.4-0.8s-0.2-0.6-0.4-0.8L50.7,21.3
	c-0.3-0.3-0.8-0.3-1.2,0L35.3,31.6c-0.3,0.2-0.4,0.5-0.4,0.8C34.9,32.7,35,33.1,35.3,33.2z M50.1,47.1l-9.8-7.3v-2.9l9.2,6.7
	c0.2,0.1,0.4,0.2,0.6,0.2s0.4-0.1,0.6-0.2l5.9-4.3v3L50.1,47.1z M60,39.8l-1.3,1v-3l1.3-1V39.8z M50.1,23.4l12.6,9.1L58,35.8
	L50.7,31c-0.5-0.3-1.1-0.2-1.4,0.3s-0.2,1.1,0.3,1.4l6.7,4.4l-6.2,4.4l-12.6-9.1L50.1,23.4z"/>
<path d="M78.8,16.5H20.5c-0.6,0-1,0.4-1,1v34.8c0,0.6,0.4,1,1,1h58.3c0.6,0,1-0.4,1-1V17.5C79.8,16.9,79.4,16.5,78.8,16.5z
	 M77.8,51.2H21.5V18.5h56.3V51.2z"/>
<path d="M13.1,90.5h73.3c1,0,1.9-0.4,2.6-1.2c0.6-0.7,0.9-1.7,0.7-2.7l-4.9-28.7V15.8c0-2.9-2.4-5.3-5.3-5.3H19.8
	c-2.9,0-5.3,2.4-5.3,5.3V58L9.8,86.7c-0.2,1,0.1,1.9,0.7,2.7C11.2,90.1,12.1,90.5,13.1,90.5z M16.5,15.8c0-1.8,1.5-3.3,3.3-3.3h59.8
	c1.8,0,3.3,1.5,3.3,3.3v41.3H16.5V15.8z M11.8,87l4.5-27.9H83L87.7,87c0.1,0.4,0,0.8-0.3,1.1c-0.3,0.3-0.6,0.5-1,0.5H13.1
	c-0.4,0-0.8-0.2-1-0.5C11.9,87.7,11.7,87.4,11.8,87z"/>
<path d="M18.4,82.3h62.7c0.3,0,0.6-0.1,0.8-0.3s0.3-0.5,0.2-0.8l-2.3-17c-0.1-0.5-0.5-0.9-1-0.9H20.5c-0.5,0-0.9,0.4-1,0.9l-2.1,17
	c0,0.3,0.1,0.6,0.2,0.8C17.9,82.2,18.1,82.3,18.4,82.3z M20.4,73.8h13.1l-0.6,6.5H19.6L20.4,73.8z M50.8,71.8v-6.5h11.9l0.6,6.5
	H50.8z M63.5,73.8l0.6,6.5H50.8v-6.5H63.5z M48.8,71.8H35.7l0.6-6.5h12.5V71.8z M48.8,73.8v6.5h-14l0.6-6.5H48.8z M66.1,80.3
	l-0.6-6.5h13.6l0.9,6.5H66.1z M78.8,71.8H65.3l-0.6-6.5H78L78.8,71.8z M34.3,65.3l-0.6,6.5H20.6l0.8-6.5H34.3z"/>
</svg>
