<svg version="1.1" xmlns="http://www.w3.org/2000/svg" x="0px" y="0px" viewBox="0 0 100 100">
<path d="M83.9,33.6c-2.8,0.3-5,2.8-5,5.7v13.6c-1-0.8-2.2-1.3-3.5-1.3c-1.5,0-2.9,0.6-3.9,1.6l-12,12c-1,1-1.6,2.4-1.6,3.9v20.4
	c0,0.6,0.4,1,1,1H76c0.6,0,1-0.4,1-1v-9.4c0-0.8,0.3-1.7,0.9-2.3l9.9-11.4c1.6-1.8,2.4-4.2,2.4-6.6V39.2c0-1.6-0.7-3.1-1.8-4.1
	C87,34,85.5,33.5,83.9,33.6z M88,59.8c0,1.9-0.7,3.8-2,5.3l-9.8,11.4c-0.9,1-1.3,2.3-1.3,3.6v8.4H59.8V69.2c0-0.9,0.4-1.8,1-2.5
	l12-12c1.3-1.3,3.7-1.3,5,0c0.7,0.7,1,1.6,1,2.5s-0.4,1.8-1,2.5l-7.6,7.6c-0.4,0.4-0.4,1,0,1.4s1,0.4,1.4,0l7.6-7.6
	c1-1,1.6-2.4,1.6-3.9l0,0l0,0V39.4c0-1.9,1.4-3.6,3.2-3.7c1-0.1,2,0.2,2.7,0.9s1.2,1.6,1.2,2.6v20.6H88z"/>
<path d="M22.3,77.8c0.6,0.6,0.9,1.5,0.9,2.3v9.4c0,0.6,0.4,1,1,1h17.1c0.6,0,1-0.4,1-1V69.2c0-1.5-0.6-2.9-1.6-3.9l-12-12
	c-1-1-2.4-1.6-3.9-1.6c-1.3,0-2.6,0.5-3.5,1.3V39.4c0-2.9-2.2-5.4-5-5.7c-1.6-0.1-3.1,0.4-4.3,1.4s-1.8,2.5-1.8,4.1v20.7
	c0,2.4,0.9,4.7,2.4,6.6L22.3,77.8z M12,39.2c0-1,0.4-2,1.2-2.6c0.7-0.7,1.7-1,2.7-0.9c1.8,0.2,3.2,1.8,3.2,3.7v17.8l0,0l0,0
	c0,1.5,0.6,2.9,1.6,3.9l7.6,7.6c0.4,0.4,1,0.4,1.4,0s0.4-1,0-1.4l-7.6-7.6c-0.7-0.7-1-1.6-1-2.5s0.4-1.8,1-2.5c1.3-1.3,3.7-1.3,5,0
	l12,12c0.7,0.7,1,1.5,1,2.5v19.3H25.2v-8.4c0-1.3-0.5-2.6-1.3-3.6L14,65.1c-1.3-1.5-2-3.3-2-5.3V39.2z"/>
<path d="M49.4,37.7c0.2,0.1,0.4,0.2,0.6,0.2s0.4-0.1,0.6-0.2C51,37.4,62,29.7,64,21.3c1.2-5-1.7-8.8-4.8-10.1
	c-2.8-1.2-6.6-0.9-9.2,2.3c-2.7-3.1-6.5-3.5-9.2-2.3c-3.2,1.3-6,5.1-4.8,10.1C38,29.7,49,37.4,49.4,37.7z M41.5,13
	c0.7-0.3,1.5-0.5,2.3-0.5c1.8,0,3.8,0.8,5.3,3.1c0.2,0.3,0.5,0.5,0.8,0.5s0.7-0.2,0.8-0.5c2.2-3.4,5.5-3.6,7.6-2.7
	c2.5,1.1,4.6,3.9,3.7,7.8c-1.5,6.8-9.8,13.3-12,15c-2.3-1.7-10.5-8.1-12.1-14.8C36.9,16.9,39,14,41.5,13z"/>
<path d="M57.5,41.2c-2.2-1-5.3-0.7-7.5,1.7c-2.2-2.4-5.2-2.7-7.5-1.7c-2.6,1.1-5,4.2-4,8.3c1.6,6.9,10.5,13,10.9,13.3
	c0.2,0.1,0.4,0.2,0.6,0.2s0.4-0.1,0.6-0.2c0.4-0.3,9.3-6.4,10.9-13.3C62.5,45.4,60.1,42.4,57.5,41.2z M59.5,49.1
	c-1.2,5.2-7.6,10.2-9.5,11.7c-1.9-1.5-8.3-6.5-9.5-11.7c-0.7-3,0.9-5.2,2.8-6c0.5-0.2,1.1-0.4,1.8-0.4c1.4,0,2.9,0.6,4.1,2.4
	c0.4,0.6,1.3,0.6,1.7,0c1.7-2.6,4.2-2.8,5.9-2.1C58.6,43.9,60.2,46.1,59.5,49.1z"/>
<path d="M22.4,31.4c0.2,0.1,0.4,0.2,0.6,0.2s0.4-0.1,0.6-0.2c0.3-0.2,6.8-4.7,8-9.8c0.8-3.2-1.1-5.5-3.1-6.4
	c-1.7-0.7-3.9-0.6-5.5,1.1c-1.7-1.7-3.9-1.8-5.5-1.1c-2,0.9-3.8,3.2-3.1,6.4C15.6,26.7,22.1,31.2,22.4,31.4z M18.2,17
	c0.4-0.2,0.8-0.3,1.2-0.3c0.9,0,1.9,0.4,2.7,1.6c0.2,0.3,0.5,0.5,0.8,0.5s0.7-0.2,0.8-0.5c1.1-1.8,2.8-1.9,3.9-1.4
	c1.3,0.6,2.4,2,1.9,4.1c-0.8,3.6-5.1,7.1-6.7,8.2C21.2,28,17,24.5,16.1,21C15.8,19.1,16.9,17.6,18.2,17z"/>
<path d="M76.5,31.4c0.2,0.1,0.4,0.2,0.6,0.2s0.4-0.1,0.6-0.2c0.3-0.2,6.8-4.7,8-9.8c0.8-3.2-1.1-5.5-3.1-6.4
	c-1.7-0.7-3.9-0.6-5.5,1.1c-1.7-1.7-3.9-1.8-5.5-1.1c-2,0.9-3.8,3.2-3.1,6.4C69.6,26.7,76.2,31.2,76.5,31.4z M72.3,17
	c0.4-0.2,0.8-0.3,1.2-0.3c0.9,0,1.9,0.4,2.7,1.6c0.2,0.3,0.5,0.5,0.8,0.5s0.7-0.2,0.8-0.5c1.1-1.8,2.8-1.9,3.9-1.4
	c1.3,0.6,2.4,2,1.9,4.1c-0.8,3.6-5.1,7.1-6.7,8.2c-1.6-1.2-5.8-4.7-6.7-8.2C69.9,19.1,71,17.6,72.3,17z"/>
<path d="M62.9,35.9c-0.6,0-1,0.4-1,1s0.4,1,1,1h4.5v4.5c0,0.6,0.4,1,1,1s1-0.4,1-1v-4.5h4.5c0.6,0,1-0.4,1-1s-0.4-1-1-1h-4.5v-4.5
	c0-0.6-0.4-1-1-1s-1,0.4-1,1v4.5H62.9z"/>
<path d="M30.6,31.4v4.5h-4.5c-0.6,0-1,0.4-1,1s0.4,1,1,1h4.5v4.5c0,0.6,0.4,1,1,1s1-0.4,1-1v-4.5h4.5c0.6,0,1-0.4,1-1s-0.4-1-1-1
	h-4.5v-4.5c0-0.6-0.4-1-1-1S30.6,30.8,30.6,31.4z"/>
</svg>
