<svg class="rb-social-icon rb-social-icon--tiktok" xmlns="http://www.w3.org/2000/svg" height="40" width="36" viewBox="0 0 448 512">
                        <title>@liverpooluni on TikTok</title>
                        <path id="rb-social-icon--tiktok" d="M384,32H64C28.7,32,0,60.7,0,96v320c0,35.3,28.7,64,64,64h320c35.3,0,64-28.7,64-64V96c0-35.3-28.7-64-64-64ZM390.7,222.2c-32.8,0-64.7-10.2-91.4-29.2v133.1c0,66.8-54.2,121-121.1,121-66.8,0-121-54.2-121-121.1,0-66.8,54.2-121,121.1-121,5.6,0,11.1.4,16.6,1.2v66.9c-29.2-9.2-60.4,7-69.6,36.3-9.2,29.2,7,60.4,36.3,69.6,29.2,9.2,60.4-7,69.6-36.3,1.7-5.4,2.6-11,2.6-16.6V66h65.5c0,5.5.4,11.1,1.4,16.5,4.6,24.6,19.1,46.2,40.1,59.7,14.8,9.8,32.1,15,49.9,15v65Z"></path>
                    </svg>