<svg id="Layer_1" xmlns="http://www.w3.org/2000/svg" viewBox="0 0 750.28 242.28">
              <defs>
                <style>
                  .cls-1 {
                    fill: #fff;
                    stroke-width: 0px;
                  }
                </style>
              </defs>
              <path class="cls-1" d="M74.37,34.71v12.05h-13.92s0,42.4,0,42.4h-14.51v-42.4s-13.77,0-13.77,0v-12.05h42.2Z"></path>
              <path class="cls-1" d="M127.93,34.71v54.45h-14.51v-21.86s-17.69,0-17.69,0v21.86h-14.51v-54.45h14.51v20.47s17.69,0,17.69,0v-20.47h14.51Z"></path>
              <path class="cls-1" d="M153.99,46.83v8.88s16.66,0,16.66,0v11.51h-16.66s0,9.81,0,9.81h18.88v12.13h-33.39v-54.45h33.39v12.13h-18.88Z"></path>
              <path class="cls-1" d="M210.92,86.11c-4.1-2.39-7.34-5.72-9.74-9.96-2.39-4.25-3.59-9.05-3.59-14.4s1.2-10.16,3.59-14.4c2.39-4.25,5.64-7.56,9.74-9.92,4.1-2.37,8.59-3.55,13.47-3.55,4.93,0,9.44,1.19,13.51,3.55,4.07,2.37,7.29,5.68,9.66,9.92,2.37,4.25,3.55,9.05,3.55,14.4,0,5.36-1.18,10.16-3.55,14.4-2.37,4.25-5.6,7.57-9.7,9.96-4.1,2.39-8.59,3.59-13.47,3.59-4.89,0-9.38-1.2-13.47-3.59ZM233.16,71.86c2.15-2.52,3.22-5.9,3.22-10.12s-1.07-7.74-3.22-10.23c-2.15-2.5-5.07-3.75-8.77-3.75-3.75,0-6.69,1.25-8.81,3.75-2.12,2.5-3.18,5.91-3.18,10.23,0,4.27,1.06,7.66,3.18,10.16,2.12,2.5,5.06,3.75,8.81,3.75,3.7,0,6.63-1.26,8.77-3.78Z"></path>
              <path class="cls-1" d="M286.52,89.16l-10.36-20.08h-1.55s0,20.08,0,20.08h-14.51v-54.45h22.88c4.19,0,7.75.76,10.66,2.28,2.91,1.52,5.11,3.6,6.59,6.26,1.48,2.65,2.22,5.63,2.22,8.92,0,3.71-.97,6.96-2.92,9.77-1.95,2.81-4.8,4.8-8.55,5.99l11.77,21.24h-16.21ZM274.61,58.73h7.18c1.97,0,3.45-.49,4.44-1.47.99-.98,1.48-2.39,1.48-4.25,0-1.75-.51-3.13-1.52-4.13-1.01-1-2.48-1.5-4.4-1.5h-7.18s0,11.35,0,11.35Z"></path>
              <path class="cls-1" d="M326.21,34.71v54.45h-14.51v-54.45h14.51Z"></path>
              <path class="cls-1" d="M370.51,52.63c-.84-1.44-1.99-2.55-3.44-3.32-1.46-.77-3.17-1.16-5.15-1.16-3.65,0-6.53,1.23-8.62,3.71-2.1,2.47-3.15,5.79-3.15,9.96,0,4.69,1.12,8.25,3.37,10.7,2.25,2.45,5.52,3.67,9.81,3.67,5.08,0,8.71-2.39,10.88-7.18h-14.58v-10.89h27.1v14.67c-1.14,2.88-2.8,5.59-5,8.11-2.2,2.52-4.97,4.6-8.33,6.22-3.36,1.62-7.18,2.43-11.48,2.43-5.23,0-9.86-1.17-13.88-3.51-4.02-2.34-7.13-5.61-9.33-9.81-2.2-4.2-3.29-9-3.29-14.4,0-5.35,1.1-10.13,3.29-14.33,2.2-4.2,5.29-7.47,9.29-9.81,4-2.34,8.61-3.51,13.84-3.51,6.56,0,11.99,1.65,16.29,4.94,4.29,3.3,6.96,7.8,7.99,13.52h-15.62Z"></path>
              <path class="cls-1" d="M410.97,34.71v54.45h-14.51v-54.45h14.51Z"></path>
              <path class="cls-1" d="M470.81,89.16h-14.51s-19.32-30.43-19.32-30.43v30.43h-14.51v-54.45h14.51s19.32,30.82,19.32,30.82v-30.82h14.51v54.45Z"></path>
              <path class="cls-1" d="M513.96,80.28h-18.51s-2.81,8.88-2.81,8.88h-15.25s19.03-54.45,19.03-54.45h16.73s18.95,54.45,18.95,54.45h-15.32s-2.81-8.88-2.81-8.88ZM510.33,68.69l-5.63-17.61-5.55,17.61h11.18Z"></path>
              <path class="cls-1" d="M553.18,77.57h16.21v11.59h-30.72v-54.45h14.51v42.87Z"></path>
              <path class="cls-1" d="M353.34,208.04l-10.36-20.08h-1.55s0,20.08,0,20.08h-14.51v-54.45h22.88c4.19,0,7.75.76,10.66,2.28,2.91,1.52,5.11,3.6,6.59,6.26,1.48,2.65,2.22,5.63,2.22,8.92,0,3.71-.97,6.96-2.92,9.77-1.95,2.81-4.8,4.8-8.55,5.99l11.77,21.24h-16.21ZM341.42,177.61h7.18c1.97,0,3.45-.49,4.44-1.47.99-.98,1.48-2.39,1.48-4.25,0-1.75-.51-3.13-1.52-4.13-1.01-1-2.48-1.5-4.4-1.5h-7.18s0,11.35,0,11.35Z"></path>
              <path class="cls-1" d="M393.06,165.71v8.88s16.66,0,16.66,0v11.51h-16.66s0,9.81,0,9.81h18.88v12.13h-33.39v-54.45h33.39v12.13h-18.88Z"></path>
              <path class="cls-1" d="M457.7,157.02c4.12,2.29,7.29,5.5,9.51,9.62,2.22,4.12,3.33,8.83,3.33,14.13,0,5.25-1.12,9.94-3.37,14.06-2.25,4.12-5.43,7.35-9.55,9.69-4.12,2.34-8.9,3.51-14.33,3.51h-20.65v-54.45h20.65c5.48,0,10.28,1.15,14.4,3.44ZM452.18,191.04c2.42-2.42,3.63-5.84,3.63-10.27,0-4.48-1.21-7.94-3.63-10.39-2.42-2.45-5.75-3.67-9.99-3.67h-5.03s0,27.96,0,27.96h5.03c4.24,0,7.58-1.21,9.99-3.63Z"></path>
              <path class="cls-1" d="M518.25,184.83c1.8,2.45,2.7,5.24,2.7,8.38,0,4.63-1.53,8.26-4.59,10.89-3.06,2.63-7.35,3.94-12.88,3.94h-25.84v-54.45h25.02c5.33,0,9.51,1.24,12.55,3.71,3.04,2.47,4.55,5.95,4.55,10.43,0,3.19-.8,5.86-2.41,7.99-1.6,2.14-3.74,3.59-6.4,4.36,3.06.72,5.49,2.31,7.29,4.75ZM492.15,175.21h7.33c3.65,0,5.48-1.57,5.48-4.71,0-3.24-1.83-4.87-5.48-4.87h-7.33s0,9.58,0,9.58ZM506.07,191.04c0-1.65-.48-2.91-1.44-3.78-.96-.88-2.33-1.31-4.11-1.31h-8.37s0,9.89,0,9.89h8.44c3.65,0,5.48-1.59,5.48-4.79Z"></path>
              <path class="cls-1" d="M556.89,208.04l-10.36-20.08h-1.55s0,20.08,0,20.08h-14.51v-54.45h22.88c4.19,0,7.75.76,10.66,2.28,2.91,1.52,5.11,3.6,6.59,6.26,1.48,2.65,2.22,5.63,2.22,8.92,0,3.71-.97,6.96-2.92,9.77-1.95,2.81-4.8,4.8-8.55,5.99l11.77,21.24h-16.21ZM544.97,177.61h7.18c1.97,0,3.45-.49,4.44-1.47.99-.98,1.48-2.39,1.48-4.25,0-1.75-.51-3.13-1.52-4.13-1.01-1-2.48-1.5-4.4-1.5h-7.18s0,11.35,0,11.35Z"></path>
              <path class="cls-1" d="M596.57,153.58v54.45h-14.51v-54.45h14.51Z"></path>
              <path class="cls-1" d="M609,166.37c2.15-4.2,5.19-7.47,9.14-9.81,3.95-2.34,8.49-3.51,13.62-3.51,6.51,0,11.99,1.82,16.44,5.45s7.3,8.56,8.59,14.79h-15.62c-.94-2.06-2.23-3.63-3.89-4.71-1.65-1.08-3.57-1.62-5.74-1.62-3.36,0-6.03,1.25-8.03,3.74-2,2.5-3,5.83-3,10,0,4.22,1,7.58,3,10.08,2,2.5,4.68,3.75,8.03,3.75,2.17,0,4.08-.54,5.74-1.62,1.65-1.08,2.95-2.65,3.89-4.71h15.62c-1.28,6.23-4.15,11.16-8.59,14.79-4.44,3.63-9.92,5.45-16.44,5.45-5.13,0-9.67-1.17-13.62-3.51-3.95-2.34-7-5.61-9.14-9.81-2.15-4.2-3.22-9-3.22-14.4,0-5.35,1.07-10.13,3.22-14.33Z"></path>
              <path class="cls-1" d="M696.77,208.04l-16.36-23.87v23.87h-14.51v-54.45h14.51v23.48s16.21-23.48,16.21-23.48h16.73s-19.17,26.42-19.17,26.42l20.14,28.04h-17.55Z"></path>
              <path class="cls-1" d="M750.28,242.28h-461.56v-118.74H0V0h598.97v118.74h151.32v123.54ZM293.52,237.48h451.97v-113.94h-451.97v113.94ZM4.8,118.74h589.37V4.8H4.8v113.94Z"></path>
            </svg>